<?xml version="1.0" standalone="no"?>
<!DOCTYPE svg PUBLIC "-//W3C//DTD SVG 20010904//EN"
 "http://www.w3.org/TR/2001/REC-SVG-20010904/DTD/svg10.dtd">
<svg version="1.0" xmlns="http://www.w3.org/2000/svg"
 width="694.000000pt" height="677.000000pt" viewBox="0 0 694.000000 677.000000"
 preserveAspectRatio="xMidYMid meet">

<g transform="translate(0.000000,677.000000) scale(0.100000,-0.100000)"
fill="#000000" stroke="none">
<path d="M3300 6704 c-404 -22 -772 -101 -1125 -241 -918 -363 -1632 -1100
-1948 -2010 -126 -362 -180 -683 -180 -1073 1 -530 103 -968 338 -1445 272
-551 700 -1023 1230 -1355 1117 -700 2563 -700 3683 1 785 490 1342 1298 1511
2189 56 297 71 690 37 975 -76 634 -330 1233 -726 1710 -584 705 -1411 1144
-2320 1234 -119 12 -403 20 -500 15z m325 -259 c171 -26 246 -51 298 -99 31
-29 31 -46 1 -164 -8 -29 -14 -62 -14 -72 0 -29 -48 -199 -71 -248 -21 -46
-57 -67 -93 -56 -11 4 -133 10 -271 13 l-250 6 -6 75 c-4 41 -14 172 -23 290
-9 118 -17 220 -18 225 -3 41 2 44 65 47 115 6 281 -2 382 -17z m-875 -64 c0
-5 2 -15 5 -23 6 -14 -65 -39 -150 -53 -73 -12 -77 -25 -42 -150 27 -95 31
-97 138 -65 70 21 73 21 86 4 7 -10 13 -21 13 -25 0 -10 -54 -26 -111 -34 -66
-10 -73 -16 -67 -66 8 -67 46 -186 62 -192 8 -3 42 6 75 19 77 31 126 29 126
-5 0 -22 -10 -26 -120 -58 -200 -58 -209 -61 -237 -72 -30 -11 -24 -20 -94
134 -7 17 -27 59 -44 94 -16 36 -30 73 -30 83 0 10 -4 18 -9 18 -5 0 -12 10
-16 23 -6 22 -15 44 -40 102 -7 17 -18 44 -23 60 -6 17 -13 38 -17 47 -7 17 9
26 95 57 19 7 66 24 103 38 147 53 297 85 297 64z m1518 -67 c30 -8 62 -18 71
-24 10 -5 54 -22 97 -38 97 -36 249 -109 265 -128 17 -21 -17 -18 -66 5 -102
49 -123 55 -163 43 -33 -10 -41 -19 -65 -71 -15 -32 -27 -70 -27 -84 0 -36 33
-72 96 -104 64 -32 48 -45 -17 -14 -52 26 -74 26 -117 3 -26 -13 -40 -31 -58
-77 -40 -99 -30 -138 43 -173 26 -13 55 -28 63 -33 8 -5 26 -14 40 -21 20 -9
21 -12 8 -15 -9 -2 -69 19 -134 46 -64 28 -122 51 -128 51 -27 1 -37 25 -66
172 -33 170 -34 157 10 288 5 14 16 57 25 95 22 89 32 108 53 100 9 -4 41 -13
70 -21z m-2134 -246 c24 -51 49 -109 56 -128 7 -19 21 -49 31 -66 11 -17 35
-70 54 -118 32 -81 34 -90 22 -126 -6 -22 -15 -40 -19 -40 -5 0 -8 -6 -8 -13
0 -40 -215 -197 -320 -233 -44 -15 -116 -7 -144 17 -26 22 -325 362 -338 383
-7 12 -1 17 126 116 66 51 70 52 83 34 33 -46 65 -95 119 -179 32 -49 65 -99
74 -110 31 -36 90 -125 90 -135 0 -5 11 -17 25 -26 29 -19 95 -13 134 13 21
14 23 20 18 69 -6 54 -21 86 -122 244 -95 150 -165 261 -165 265 0 5 191 109
215 117 11 3 21 6 23 7 1 1 22 -41 46 -91z m1014 -493 c-3 -3 -9 2 -12 12 -6
14 -5 15 5 6 7 -7 10 -15 7 -18z m542 -21 c58 -7 138 -19 179 -26 l73 -13 -7
-80 c-4 -44 -11 -86 -17 -92 -13 -15 -44 -17 -53 -3 -3 6 -30 10 -58 10 -87 0
-118 14 -162 72 -42 55 -55 50 -37 -16 6 -19 8 -37 5 -39 -2 -3 -44 -3 -91 0
l-87 4 -48 47 c-27 26 -67 69 -89 95 -33 39 -39 51 -27 58 18 12 283 1 419
-17z m-2210 -103 c125 -130 194 -210 198 -228 2 -8 -8 -38 -22 -67 -14 -29
-26 -64 -26 -77 0 -35 27 -69 56 -69 33 0 30 -9 -16 -54 -30 -29 -45 -37 -62
-33 -35 9 -98 -9 -114 -32 -8 -11 -40 -41 -72 -67 -53 -43 -59 -46 -100 -40
-36 5 -132 51 -227 109 -126 77 -177 112 -185 127 -13 24 2 104 33 172 66 146
185 272 337 355 16 9 40 12 65 8 35 -4 52 -18 135 -104z m1623 91 c9 -9 30
-48 48 -85 29 -63 30 -69 15 -86 -9 -10 -14 -20 -11 -23 3 -2 -6 -15 -20 -28
l-24 -23 -12 27 c-13 29 -21 31 -50 15 -14 -7 -24 -7 -33 0 -8 7 -34 7 -81 -1
-39 -5 -77 -11 -85 -12 -9 -1 -21 -6 -29 -10 -7 -5 -32 -10 -55 -11 -71 -4
-129 -16 -173 -36 -24 -10 -47 -19 -51 -19 -5 0 -28 -13 -50 -30 -23 -16 -47
-30 -54 -30 -7 -1 -35 -23 -63 -50 -27 -28 -57 -52 -67 -55 -9 -3 -51 -40 -95
-81 -43 -41 -97 -87 -120 -101 -24 -14 -43 -29 -43 -34 0 -5 -6 -9 -13 -9 -14
0 -67 -51 -67 -64 0 -6 -45 -72 -60 -86 -11 -11 -50 -70 -50 -75 0 -4 -36 -43
-80 -87 -44 -44 -80 -85 -80 -90 0 -5 -9 -19 -20 -31 -12 -12 -23 -33 -27 -47
-3 -14 -21 -54 -40 -89 -31 -58 -33 -66 -19 -77 22 -16 20 -24 -8 -24 -22 0
-25 -7 -40 -92 -13 -71 -23 -99 -42 -119 -14 -14 -27 -39 -29 -55 -2 -16 -5
-29 -6 -29 -1 0 -3 -9 -4 -20 -2 -11 -8 -55 -15 -99 -6 -43 -9 -84 -6 -92 3
-7 -3 -18 -12 -23 -15 -9 -17 -31 -14 -228 3 -294 8 -407 20 -429 14 -29 33
-84 46 -136 6 -26 20 -57 30 -69 10 -12 22 -48 26 -80 5 -33 22 -88 39 -123
17 -34 31 -67 31 -72 1 -5 9 -27 20 -49 11 -22 19 -47 20 -56 0 -9 6 -19 14
-22 9 -4 13 -19 13 -43 -2 -39 -17 -50 -72 -53 -30 -1 -81 83 -160 264 -85
195 -125 325 -146 480 -4 33 -13 92 -18 130 -24 166 -12 375 39 670 15 88 52
211 96 316 13 31 24 60 24 64 0 4 27 63 60 132 50 104 140 252 197 323 86 108
150 184 189 225 139 144 310 279 469 372 11 6 69 37 129 67 60 31 132 71 160
89 50 33 129 67 155 67 7 0 29 7 49 16 71 31 77 33 102 37 69 11 137 7 153
-11z m1145 -98 c64 -14 199 -71 226 -96 11 -10 33 -24 50 -30 67 -28 109 -56
164 -105 59 -53 178 -157 199 -174 18 -14 3 -33 -75 -99 -107 -89 -153 -122
-160 -115 -4 4 0 12 8 19 8 6 21 22 28 35 13 21 11 26 -12 49 -21 21 -27 23
-40 13 -9 -7 -23 -10 -32 -7 -13 5 -15 15 -11 51 6 43 6 45 -19 45 -17 0 -24
4 -21 13 3 7 -1 21 -8 30 -11 16 -13 16 -19 2 -3 -9 -10 -14 -15 -11 -4 3 -16
-3 -26 -14 -14 -16 -28 -19 -65 -16 -27 2 -52 6 -56 8 -5 3 -20 8 -34 11 -30
7 -77 76 -86 126 -4 20 -19 87 -35 150 -28 117 -29 137 -2 127 8 -4 27 -9 41
-12z m1468 -26 c23 -13 35 -30 47 -69 10 -31 37 -75 65 -108 l47 -55 1 -81 c1
-44 2 -88 3 -97 0 -10 27 -34 59 -54 31 -20 60 -42 64 -48 12 -17 9 -46 -3
-46 -6 0 -25 -6 -42 -14 -79 -36 -169 -67 -184 -64 -11 2 -22 25 -34 73 -10
39 -18 73 -18 76 -2 16 -78 79 -96 79 -52 1 -75 47 -75 148 0 79 0 80 -35 111
-20 17 -42 31 -49 31 -25 0 -77 70 -74 98 4 35 32 41 178 38 84 -1 123 -6 146
-18z m-341 -51 c13 -28 36 -53 70 -74 77 -50 85 -64 85 -148 0 -98 10 -122 62
-145 50 -22 92 -59 112 -98 14 -29 31 -112 23 -112 -3 0 -27 13 -54 30 -29 18
-91 40 -155 56 -87 22 -109 31 -115 48 -4 12 -6 25 -4 31 7 26 -13 79 -41 105
-17 17 -34 30 -38 30 -4 0 -15 15 -23 33 -13 26 -14 42 -6 77 6 25 9 77 7 115
-3 55 -1 73 11 82 28 22 45 13 66 -30z m500 -89 c13 -33 13 -38 1 -38 -40 0
-108 102 -89 133 8 14 70 -53 88 -95z m-2671 66 c9 -24 2 -26 -12 -4 -7 11 -8
20 -3 20 5 0 12 -7 15 -16z m2072 -61 c-14 -170 -17 -155 46 -216 54 -52 57
-58 55 -100 l-2 -44 -80 -1 c-77 -2 -153 -9 -186 -18 -12 -3 -19 4 -24 23 -3
15 -16 38 -28 51 -35 38 -48 88 -31 127 40 98 186 250 242 254 11 1 12 -15 8
-76z m702 -33 c52 -64 103 -154 118 -212 20 -76 13 -98 -23 -70 -16 12 -29 42
-44 102 -20 77 -26 89 -67 125 -38 34 -53 57 -91 140 -5 12 88 -63 107 -85z
m-48 -60 c32 -17 62 -69 80 -142 20 -75 42 -108 72 -108 27 0 35 -30 13 -46
-32 -23 -59 -17 -75 19 -10 21 -32 41 -64 57 -61 32 -74 57 -58 115 8 31 9 52
2 71 -9 23 -6 44 6 44 3 0 14 -4 24 -10z m-1474 -207 c-10 -10 -19 5 -10 18 6
11 8 11 12 0 2 -7 1 -15 -2 -18z m604 -57 c0 -13 -32 -35 -51 -36 -18 0 -32
38 -24 64 17 53 15 53 46 16 16 -19 29 -38 29 -44z m-2151 -13 c41 -15 69 -29
62 -31 -7 -2 -32 3 -55 12 -50 19 -158 23 -198 7 -15 -5 -39 -28 -54 -50 -14
-23 -30 -38 -35 -36 -12 8 19 77 47 103 37 33 135 31 233 -5z m1571 18 c0 -5
-9 -11 -19 -14 -14 -3 -18 -1 -14 9 6 15 33 19 33 5z m466 -67 c-3 -8 -10 -14
-16 -14 -10 0 -6 36 8 70 8 19 16 -36 8 -56z m359 -2 c13 -10 48 -24 79 -32
31 -7 56 -17 56 -22 0 -11 -63 0 -108 18 -19 8 -51 11 -73 9 -43 -6 -47 -1
-22 27 20 23 39 23 68 0z m-2275 -2 c8 -5 11 -10 5 -10 -5 0 -17 5 -25 10 -8
5 -10 10 -5 10 6 0 17 -5 25 -10z m-2125 -54 c36 -19 71 -39 78 -44 7 -5 48
-29 92 -52 91 -49 135 -77 152 -100 22 -27 12 -169 -16 -235 -50 -118 -91
-187 -139 -238 l-55 -57 -51 6 c-81 10 -285 53 -306 64 -10 5 -27 10 -38 10
-29 0 -69 23 -93 54 -20 26 -21 36 -16 124 10 158 87 333 195 440 76 75 100
79 197 28z m1495 -6 c0 -5 -4 -10 -10 -10 -5 0 -10 5 -10 10 0 6 5 10 10 10 6
0 10 -4 10 -10z m1840 -15 c240 -58 430 -190 578 -403 141 -202 202 -396 202
-637 0 -153 -27 -335 -50 -335 -4 0 -43 44 -87 98 -250 315 -638 705 -978 984
-55 45 -224 177 -252 197 -18 12 -33 28 -33 35 0 18 134 65 225 80 60 9 331
-4 395 -19z m1465 -33 c-3 -3 -11 0 -18 7 -9 10 -8 11 6 5 10 -3 15 -9 12 -12z
m382 2 c3 -9 1 -32 -5 -51 -12 -39 -72 -143 -83 -143 -10 0 -92 111 -86 116 2
3 33 25 68 49 69 47 96 54 106 29z m-513 -45 c-10 -18 -22 -9 -17 14 4 20 3
21 -10 5 -14 -18 -43 -26 -33 -9 4 5 -4 7 -16 4 -16 -4 -20 -2 -13 5 6 6 26
15 45 19 30 8 36 7 43 -10 4 -10 5 -23 1 -28z m-214 31 c0 -5 -5 -10 -11 -10
-5 0 -7 5 -4 10 3 6 8 10 11 10 2 0 4 -4 4 -10z m250 -5 c0 -8 -4 -15 -10 -15
-5 0 -7 7 -4 15 4 8 8 15 10 15 2 0 4 -7 4 -15z m-3200 -10 c0 -8 -9 -15 -20
-15 -11 0 -20 7 -20 15 0 8 9 15 20 15 11 0 20 -7 20 -15z m-50 -13 c26 -24
35 -72 18 -94 -18 -24 -68 -33 -91 -16 -10 8 -21 32 -24 55 -5 38 -3 42 23 57
38 20 51 20 74 -2z m2933 11 c-7 -2 -19 -2 -25 0 -7 3 -2 5 12 5 14 0 19 -2
13 -5z m178 -2 c0 -3 2 -14 4 -23 2 -11 -2 -15 -11 -11 -8 3 -26 2 -40 -1 -25
-7 -25 -8 -8 -20 16 -13 15 -14 -14 -21 -17 -3 -36 -4 -42 0 -6 4 -9 1 -8 -7
2 -7 -8 -14 -22 -16 -14 -2 -31 -9 -38 -14 -9 -8 -11 -6 -6 8 4 14 1 13 -15
-6 -11 -14 -21 -19 -21 -12 0 17 -30 15 -30 -3 0 -18 -9 -19 -32 -1 -19 14
-25 32 -8 21 6 -4 19 -4 28 0 15 6 15 8 -3 15 -20 8 -20 8 -1 16 13 5 21 3 24
-4 6 -18 20 -14 18 6 -1 11 5 16 16 14 12 -2 16 2 12 12 -3 9 3 19 16 26 15 8
20 8 16 1 -5 -7 5 -11 28 -11 35 0 57 15 34 22 -7 3 3 5 22 5 19 0 41 -4 48
-10 7 -5 15 -7 19 -3 3 3 1 6 -5 6 -7 0 -12 4 -12 8 0 10 30 12 31 3z m-3401
-15 c0 -3 -4 -8 -10 -11 -5 -3 -10 -1 -10 4 0 6 5 11 10 11 6 0 10 -2 10 -4z
m3162 -22 c-3 -16 -9 -23 -18 -20 -8 3 -14 1 -14 -4 0 -6 -7 -10 -16 -10 -8 0
-12 -4 -9 -10 11 -18 -11 -10 -35 12 -16 15 -19 23 -11 26 8 3 17 -1 21 -9 7
-10 12 -10 25 1 10 8 27 20 39 26 11 7 22 12 22 13 1 1 -1 -11 -4 -25z m293 6
c-3 -5 -14 -10 -23 -10 -15 0 -15 2 -2 10 20 13 33 13 25 0z m-3475 -34 c0 -3
-4 -8 -10 -11 -5 -3 -10 -1 -10 4 0 6 5 11 10 11 6 0 10 -2 10 -4z m396 -41
c-1 -5 -12 -11 -24 -13 -17 -3 -21 2 -20 27 1 29 1 29 24 13 13 -9 22 -21 20
-27z m981 9 c-3 -3 -12 -4 -19 -1 -8 3 -5 6 6 6 11 1 17 -2 13 -5z m90 -63
c35 -25 61 -47 59 -49 -4 -4 -109 69 -131 91 -20 20 11 1 72 -42z m2360 -15
c-3 -8 1 -20 9 -27 12 -10 16 -9 21 9 6 25 18 28 27 7 3 -8 2 -15 -3 -15 -5 0
0 -18 11 -40 11 -22 18 -45 16 -52 -3 -7 -11 2 -19 20 -15 34 -26 41 -26 17 0
-8 4 -15 9 -15 15 0 4 -50 -12 -51 -10 0 -11 -2 -2 -6 7 -3 19 1 27 7 11 9 15
9 15 1 0 -13 37 7 43 24 2 5 3 2 1 -8 -4 -28 6 -46 22 -40 18 7 17 -7 -1 -31
-8 -11 -15 -25 -15 -30 0 -6 5 -4 10 4 5 8 10 10 10 5 0 -6 -5 -16 -11 -22
-13 -13 -4 -33 17 -33 8 0 14 11 15 28 l0 27 12 -23 c8 -19 8 -25 -4 -32 -11
-7 -11 -14 -3 -27 12 -20 7 -93 -7 -93 -12 0 -12 -37 0 -42 4 -1 5 -12 0 -23
-7 -19 -8 -19 -8 3 -1 13 -7 22 -16 22 -12 0 -13 4 -5 19 14 28 12 36 -5 21
-9 -7 -18 -11 -20 -8 -3 3 -6 42 -6 87 0 63 -4 81 -15 81 -8 0 -14 -6 -14 -14
0 -8 -7 -16 -15 -20 -10 -4 -15 -20 -15 -50 0 -31 -5 -46 -16 -50 -28 -11 -34
-6 -28 19 5 22 3 25 -20 25 -25 0 -38 20 -13 20 6 0 4 5 -6 11 -9 6 -15 15
-11 21 4 7 9 6 14 -2 4 -7 16 -10 25 -8 18 3 18 4 1 20 -9 10 -14 23 -10 29 4
8 3 9 -4 5 -8 -5 -12 2 -13 21 0 26 -1 26 -9 7 -15 -38 -30 -38 -30 0 0 35
-13 48 -23 24 -4 -8 -6 -7 -6 4 -1 9 5 18 12 21 9 3 9 7 -2 20 -14 18 -12 19
28 21 44 2 36 26 -8 26 -27 0 -41 -4 -41 -13 0 -7 -9 -13 -20 -13 -11 0 -20 1
-20 2 0 19 18 34 40 34 16 0 32 5 35 10 4 6 10 8 14 5 5 -2 6 7 3 20 -2 14 -9
25 -14 25 -6 0 -8 7 -5 14 4 10 1 13 -9 9 -19 -7 -18 7 3 22 14 11 20 10 30
-4 11 -14 13 -14 19 6 6 22 6 22 26 3 11 -10 18 -26 15 -34z m-3707 18 c0 -8
-4 -12 -10 -9 -5 3 -10 10 -10 16 0 5 5 9 10 9 6 0 10 -7 10 -16z m1540 -148
c74 -58 85 -67 235 -201 128 -115 193 -177 313 -298 144 -147 174 -178 170
-182 -1 -2 -100 92 -219 208 -119 117 -245 237 -280 268 -165 145 -175 153
-265 224 -21 17 -47 38 -58 49 -21 18 -20 18 9 1 17 -10 59 -41 95 -69z m2007
58 c-15 -8 -32 -12 -37 -9 -6 4 -7 -2 -3 -12 6 -17 5 -17 -13 0 -23 22 -11 32
43 35 l38 2 -28 -16z m-2432 -29 c11 -8 74 -54 141 -102 66 -49 142 -106 169
-128 26 -22 64 -53 83 -70 149 -124 488 -452 657 -635 181 -196 383 -444 414
-508 l15 -33 -40 -37 c-136 -126 -178 -157 -306 -228 -11 -7 -16 -13 -11 -15
15 -7 50 -63 58 -94 5 -16 10 -34 11 -40 2 -5 7 -23 10 -40 4 -16 17 -42 29
-56 12 -15 27 -40 34 -58 8 -17 17 -31 21 -31 19 0 19 -51 0 -93 -17 -39 -25
-46 -53 -49 -24 -2 -32 -8 -32 -22 0 -10 -9 -24 -20 -30 -11 -6 -23 -15 -27
-21 -4 -5 -38 -10 -76 -9 -64 1 -69 -1 -64 -19 4 -15 0 -18 -14 -15 -11 2 -18
11 -18 21 2 15 -3 17 -27 12 -28 -6 -29 -6 -29 37 0 52 -5 60 -47 82 -21 10
-39 31 -48 54 -9 20 -31 53 -49 72 -39 42 -76 101 -76 123 0 8 -6 17 -12 20
-8 3 -3 9 12 15 14 6 21 11 15 12 -5 0 -4 4 3 8 18 12 5 39 -23 46 -13 3 -63
10 -112 15 -48 5 -110 15 -138 21 -62 15 -255 105 -255 119 0 6 20 42 46 81
31 49 57 76 83 90 47 23 103 87 133 149 17 35 22 62 20 110 -2 67 9 101 115
360 43 103 51 148 30 156 -21 9 -94 -7 -212 -45 -129 -41 -146 -45 -154 -33
-11 16 -69 53 -83 53 -68 0 -180 -86 -224 -171 -15 -31 -41 -60 -71 -81 -40
-28 -116 -68 -129 -68 -11 0 -24 47 -39 135 -33 191 -6 524 50 627 8 14 15 30
15 36 0 48 159 292 190 292 9 0 25 -7 35 -15z m2425 -25 c0 -5 -2 -10 -4 -10
-3 0 -8 5 -11 10 -3 6 -1 10 4 10 6 0 11 -4 11 -10z m-3770 -15 c0 -8 -7 -15
-15 -15 -16 0 -20 12 -8 23 11 12 23 8 23 -8z m3805 -5 c3 -5 -1 -10 -9 -10
-9 0 -16 5 -16 10 0 6 4 10 9 10 6 0 13 -4 16 -10z m-3723 -57 c6 -22 -1 -43
-13 -43 -5 0 -9 14 -9 30 0 33 15 41 22 13z m563 -2 c7 -12 -12 -24 -25 -16
-11 7 -4 25 10 25 5 0 11 -4 15 -9z m-802 -44 c8 -24 5 -33 -14 -53 -21 -23
-23 -23 -42 -7 -10 10 -25 30 -33 46 -14 26 -13 28 8 37 40 16 71 8 81 -23z
m3727 -19 c0 -4 -7 -5 -15 -2 -8 4 -15 1 -15 -5 0 -15 43 -14 59 2 11 10 13 9
9 -3 -3 -8 -21 -18 -41 -21 -40 -6 -47 4 -26 43 9 17 13 18 20 7 5 -8 9 -17 9
-21z m276 -5 c-11 -11 -19 6 -11 24 8 17 8 17 12 0 3 -10 2 -21 -1 -24z m41
20 c-9 -9 -20 -13 -24 -9 -4 4 -1 11 7 16 25 16 35 11 17 -7z m-3801 -68 c7
-29 7 -29 50 -13 41 15 72 5 53 -18 -8 -10 -21 -13 -38 -9 l-26 7 30 -28 c17
-16 34 -27 39 -26 5 2 17 -5 27 -14 14 -13 16 -20 6 -35 -9 -14 -9 -21 1 -31
6 -6 12 -20 12 -30 0 -10 5 -18 10 -18 18 0 11 -19 -20 -52 -17 -18 -38 -41
-48 -52 -12 -14 -14 -20 -4 -23 19 -7 14 -23 -8 -23 -15 0 -20 7 -20 28 0 55
-18 62 -103 42 -50 -12 -64 -10 -52 9 3 6 17 8 31 5 16 -4 24 -2 25 7 3 28 -3
44 -21 56 -18 13 -18 18 -11 116 0 10 5 16 10 13 16 -10 32 22 34 68 2 50 13
60 23 21z m3934 -51 c0 -19 4 -34 8 -34 5 0 14 -11 20 -25 15 -32 -3 -34 -27
-3 -12 14 -20 17 -25 10 -4 -6 3 -21 14 -32 30 -30 19 -35 -24 -10 -43 24 -53
25 -36 5 10 -12 10 -15 -3 -15 -10 0 -18 12 -23 34 -7 39 2 60 22 52 7 -3 16
0 20 6 4 7 9 6 15 -3 8 -14 12 2 12 54 0 13 3 15 13 6 8 -6 14 -27 14 -45z
m-3771 -3 c-3 -8 -10 -8 -23 2 -12 8 -16 19 -11 26 6 10 11 10 22 -2 9 -8 14
-20 12 -26z m3651 23 c0 -8 -5 -12 -10 -9 -6 4 -8 11 -5 16 9 14 15 11 15 -7z
m-3558 -31 c2 -10 0 -37 -4 -61 -9 -39 -11 -41 -31 -31 -36 19 -57 41 -57 61
0 10 5 18 10 18 6 0 10 9 10 19 0 36 63 31 72 -6z m187 -7 c10 -12 8 -17 -8
-25 -41 -23 -69 -3 -39 27 16 16 33 15 47 -2z m-545 -60 c18 -6 18 -8 3 -23
-15 -15 -18 -15 -42 11 -16 18 -24 35 -20 45 5 14 8 13 23 -5 9 -12 26 -24 36
-28z m736 35 c0 -5 -7 -11 -14 -14 -10 -4 -13 -1 -9 9 6 15 23 19 23 5z m-900
-31 c0 -5 -2 -10 -4 -10 -3 0 -8 5 -11 10 -3 6 -1 10 4 10 6 0 11 -4 11 -10z
m740 -10 c0 -5 -7 -10 -15 -10 -8 0 -15 5 -15 10 0 6 7 10 15 10 8 0 15 -4 15
-10z m-160 -6 c0 -15 -22 -44 -31 -39 -18 12 -10 45 11 45 11 0 20 -3 20 -6z
m3624 -70 c-1 -16 3 -20 17 -17 23 6 26 -19 4 -41 -8 -8 -15 -22 -15 -30 0
-28 -27 -17 -41 17 -7 17 -18 35 -23 39 -6 4 3 8 19 8 22 0 26 3 15 9 -8 6
-18 7 -22 5 -13 -8 -9 11 4 24 18 18 43 10 42 -14z m-5421 -30 c11 -4 46 -10
77 -15 56 -8 159 -27 195 -35 11 -2 47 -8 80 -14 33 -5 79 -15 103 -21 l42
-12 -6 -66 c-13 -124 0 -115 -156 -115 -119 -1 -138 -3 -157 -20 -18 -17 -20
-27 -16 -74 9 -96 13 -99 164 -104 72 -2 132 -6 135 -9 3 -3 8 -49 11 -102 l4
-96 -32 -5 c-74 -11 -137 -18 -212 -22 -44 -3 -96 -9 -115 -14 -31 -7 -109
-16 -237 -24 -39 -3 -42 -2 -47 28 -5 32 -8 114 -7 204 l1 52 98 0 c102 0 167
12 175 33 6 17 -11 134 -23 157 -10 19 -54 26 -185 33 -49 2 -50 3 -49 32 1
46 20 192 29 221 3 11 77 4 128 -12z m1777 19 c-1 -17 -28 -44 -35 -34 -3 6 0
17 7 25 14 16 28 21 28 9z m-408 -45 c-7 -7 -12 -8 -12 -2 0 14 12 26 19 19 2
-3 -1 -11 -7 -17z m3992 0 c19 -27 11 -39 -9 -12 -8 10 -15 16 -16 12 -1 -5
-3 -12 -4 -18 -1 -5 -3 -14 -4 -20 -2 -18 -16 -11 -27 14 -9 20 -9 23 8 18 12
-3 18 1 18 12 0 23 16 20 34 -6z m-4294 -38 c0 -5 -7 -10 -16 -10 -8 0 -12 5
-9 10 3 6 10 10 16 10 5 0 9 -4 9 -10z m800 -16 c0 -16 -16 -19 -25 -4 -8 13
4 32 16 25 5 -4 9 -13 9 -21z m3418 13 c-1 -2 3 -11 11 -21 8 -9 11 -19 7 -23
-3 -3 -6 -1 -6 5 0 7 -7 12 -15 12 -17 0 -18 2 -9 25 4 9 9 14 11 11 3 -2 3
-6 1 -9z m172 -17 c0 -5 -4 -10 -10 -10 -5 0 -10 5 -10 10 0 6 5 10 10 10 6 0
10 -4 10 -10z m-3783 -36 c-9 -9 -28 6 -21 18 4 6 10 6 17 -1 6 -6 8 -13 4
-17z m-272 6 c-3 -5 -10 -10 -16 -10 -5 0 -9 5 -9 10 0 6 7 10 16 10 8 0 12
-4 9 -10z m691 -21 c19 -22 19 -22 -6 -14 -32 9 -33 11 -25 24 8 15 9 14 31
-10z m-721 -34 c0 -27 -4 -30 -32 -33 -36 -4 -43 12 -20 48 19 32 52 22 52
-15z m95 2 c0 -5 -4 -5 -10 -2 -5 3 -10 14 -10 23 0 15 2 15 10 2 5 -8 10 -19
10 -23z m-362 -42 c-4 -43 -32 -40 -36 3 -2 19 -1 41 3 50 6 15 8 15 21 -3 8
-11 14 -33 12 -50z m160 37 c2 -7 -3 -12 -12 -12 -9 0 -16 7 -16 16 0 17 22
14 28 -4z m332 -2 c0 -5 -4 -10 -10 -10 -5 0 -10 5 -10 10 0 6 5 10 10 10 6 0
10 -4 10 -10z m228 -13 c2 -12 -3 -17 -17 -17 -12 0 -21 6 -21 13 0 31 32 34
38 4z m90 1 c-2 -15 -10 -23 -23 -23 -13 0 -21 8 -23 23 -3 18 1 22 23 22 22
0 26 -4 23 -22z m3546 -1 c24 -24 -18 -46 -58 -31 -26 10 -18 24 15 24 17 0
28 4 24 10 -9 14 4 12 19 -3z m-3924 -52 c0 -7 -7 -15 -15 -19 -15 -5 -22 24
-9 37 9 9 24 -2 24 -18z m3841 13 c1 -7 1 -16 0 -20 0 -5 4 -8 9 -8 6 0 10 6
11 13 0 9 2 9 6 -1 2 -6 10 -9 16 -5 7 4 6 -1 -2 -10 -15 -19 -26 -23 -15 -5
4 6 3 8 -4 4 -14 -8 -7 -48 11 -61 17 -12 11 -35 -9 -35 -9 0 -12 -5 -9 -10 4
-6 8 -25 10 -43 l4 -32 -14 25 c-14 25 -14 25 -13 -12 1 -42 -20 -78 -33 -56
-7 10 -9 10 -10 -2 -1 -8 -1 -20 0 -25 0 -6 -9 -17 -22 -24 -20 -13 -21 -13
-8 2 12 15 11 17 -7 17 -11 0 -29 -11 -40 -24 -13 -18 -26 -24 -43 -21 -21 4
-21 3 4 -7 30 -13 33 -23 13 -43 -12 -12 -15 -11 -19 5 -3 11 -13 20 -22 20
-12 0 -15 -5 -11 -16 4 -10 1 -14 -6 -11 -7 2 -12 12 -12 21 1 11 -6 16 -27
16 -15 0 -31 5 -34 10 -3 6 3 10 14 10 19 0 20 2 9 20 -13 21 -38 27 -38 10 0
-16 -28 -12 -47 8 -10 9 -17 27 -15 40 2 15 -2 22 -13 22 -9 0 -14 4 -11 8 7
12 -27 39 -42 34 -7 -2 -12 2 -12 8 0 6 -12 11 -27 10 -54 -4 -57 -2 -39 24
15 24 13 56 -5 56 -5 0 -9 9 -9 20 0 11 7 20 16 20 8 0 13 3 11 8 -3 4 16 5
41 3 36 -3 42 -6 27 -12 -14 -5 -4 -8 35 -10 48 -1 51 -2 20 -8 -28 -5 -31 -8
-17 -14 10 -4 33 -7 50 -8 18 0 25 -3 17 -6 -8 -2 -22 -7 -30 -9 -12 -4 -12
-6 0 -14 8 -5 21 -5 31 1 23 12 76 12 64 0 -6 -5 -19 -11 -29 -13 -34 -6 -29
-25 6 -21 30 3 31 2 11 -8 -25 -13 -40 -41 -17 -32 7 3 14 9 14 14 0 5 9 9 20
9 11 0 20 7 20 15 0 21 24 29 50 15 19 -10 20 -9 14 16 -5 20 -4 25 7 22 8 -3
13 -10 12 -15 -1 -5 7 -9 17 -9 26 0 13 23 -18 31 l-27 7 24 9 c13 5 29 8 35
5 6 -2 2 -5 -9 -6 -19 -1 -18 -2 3 -10 12 -5 29 -7 37 -4 19 8 19 -3 0 -22 -8
-9 -15 -21 -15 -27 0 -8 3 -8 9 1 6 10 10 10 21 -3 7 -8 18 -15 25 -15 14 0
45 43 45 62 0 9 -3 9 -10 -2 -9 -13 -11 -13 -19 0 -6 9 -6 19 0 26 5 6 7 28 5
48 -3 20 -1 36 4 36 6 0 11 -6 11 -12z m114 -36 c-19 -43 -30 -56 -22 -24 4
18 2 22 -9 18 -9 -3 -12 -1 -9 4 3 6 1 10 -4 10 -6 0 -11 4 -11 9 0 5 11 8 25
6 16 -1 25 3 25 12 0 8 4 11 10 8 6 -4 4 -20 -5 -43z m-3469 25 c8 3 14 -1 14
-11 0 -9 -7 -19 -15 -23 -19 -7 -20 -5 -30 27 -6 20 -5 22 5 13 7 -6 19 -9 26
-6z m2724 -9 c0 -25 34 -48 70 -48 26 0 37 -4 37 -15 0 -8 -4 -15 -9 -15 -4 0
-8 -4 -8 -10 0 -5 7 -10 15 -10 8 0 15 -7 15 -15 0 -17 -75 31 -122 78 -29 28
-33 39 -22 50 9 9 24 -1 24 -15z m46 2 c0 -21 -11 -26 -21 -10 -7 11 2 30 13
30 4 0 8 -9 8 -20z m540 -38 c-21 -22 -29 -10 -15 22 11 23 14 25 22 10 6 -11
4 -21 -7 -32z m-4316 23 c0 -8 -7 -15 -15 -15 -8 0 -15 7 -15 15 0 8 7 15 15
15 8 0 15 -7 15 -15z m1210 -21 c0 -8 -4 -12 -10 -9 -5 3 -10 10 -10 16 0 5 5
9 10 9 6 0 10 -7 10 -16z m-746 -25 c-3 -5 -14 -9 -25 -9 -21 0 -26 26 -6 33
15 5 39 -12 31 -24z m2456 6 c13 -14 21 -25 18 -25 -2 0 -15 11 -28 25 -13 14
-21 25 -18 25 2 0 15 -11 28 -25z m1490 -6 c0 -14 -17 -10 -23 5 -4 10 -1 13
9 9 7 -3 14 -9 14 -14z m-3900 1 c0 -5 -5 -10 -11 -10 -5 0 -7 5 -4 10 3 6 8
10 11 10 2 0 4 -4 4 -10z m88 -33 c4 -22 -27 -35 -38 -16 -10 15 7 42 24 36 6
-2 12 -11 14 -20z m3842 -2 c0 -8 -2 -15 -4 -15 -2 0 -6 7 -10 15 -3 8 -1 15
4 15 6 0 10 -7 10 -15z m-3693 -30 c-16 -16 -37 -20 -37 -7 0 8 42 30 49 25 2
-1 -4 -9 -12 -18z m1143 -10 c0 -8 -9 -15 -20 -15 -11 0 -20 7 -20 15 0 8 9
15 20 15 11 0 20 -7 20 -15z m1100 5 c0 -5 -2 -10 -4 -10 -3 0 -8 5 -11 10 -3
6 -1 10 4 10 6 0 11 -4 11 -10z m-2640 -10 c0 -5 -5 -10 -11 -10 -5 0 -7 5 -4
10 3 6 8 10 11 10 2 0 4 -4 4 -10z m1474 -19 c-39 -36 -84 -52 -84 -30 0 19
44 48 74 49 30 0 30 0 10 -19z m1216 -26 c7 -9 8 -15 2 -15 -5 0 -12 7 -16 15
-3 8 -4 15 -2 15 2 0 9 -7 16 -15z m-3007 -38 c-8 -13 -23 3 -23 26 0 20 0 20
14 2 8 -11 12 -23 9 -28z m1037 24 c0 -12 -28 -22 -34 -12 -3 5 -3 11 1 15 9
9 33 7 33 -3z m291 -14 c-1 -12 -15 -9 -19 4 -3 6 1 10 8 8 6 -3 11 -8 11 -12z
m-923 -8 c-2 -6 -8 -10 -13 -10 -5 0 -11 4 -13 10 -2 6 4 11 13 11 9 0 15 -5
13 -11z m4469 -9 c53 -32 86 -133 84 -260 -1 -80 -17 -192 -31 -225 -5 -11
-14 -37 -20 -57 -6 -20 -18 -42 -26 -48 -7 -7 -14 -17 -14 -23 0 -6 -12 -24
-27 -39 -21 -22 -36 -28 -69 -28 -24 0 -46 5 -49 10 -4 6 -2 43 5 83 19 123
16 117 58 118 54 1 105 22 121 50 10 19 12 42 7 92 -6 55 -13 73 -34 93 -23
22 -34 25 -77 22 -87 -7 -123 -32 -182 -128 -29 -47 -52 -88 -53 -92 0 -14
-63 -101 -101 -140 -37 -40 -40 -40 -88 -34 -90 12 -139 43 -162 103 -14 37
-3 189 13 185 24 -7 37 -24 44 -59 4 -20 16 -41 30 -50 22 -14 29 -13 92 6 37
11 77 31 88 43 12 13 54 90 94 172 73 149 106 197 151 215 41 17 111 12 146
-9z m-4943 -5 c3 -9 -1 -18 -10 -22 -19 -7 -39 11 -30 26 10 16 33 13 40 -4z
m806 -5 c0 -5 -2 -10 -4 -10 -3 0 -8 5 -11 10 -3 6 -1 10 4 10 6 0 11 -4 11
-10z m3649 -77 c0 -27 -3 -66 -7 -88 -6 -34 -12 -40 -38 -45 -17 -4 -44 -14
-62 -22 -28 -15 -32 -14 -46 1 -9 10 -13 26 -9 41 6 28 131 160 150 160 9 0
13 -15 12 -47z m-3539 18 c0 -6 -4 -13 -10 -16 -5 -3 -10 1 -10 9 0 9 5 16 10
16 6 0 10 -4 10 -9z m520 1 c0 -10 -44 -32 -63 -32 -7 0 2 9 18 20 32 22 45
25 45 12z m2096 -57 c0 -14 -5 -25 -12 -25 -7 0 -9 10 -6 25 2 14 7 25 11 25
4 0 7 -11 7 -25z m-297 -29 c-2 -2 -13 8 -23 22 l-19 27 24 -22 c12 -12 21
-24 18 -27z m411 16 c31 3 40 0 43 -14 5 -19 -8 -25 -18 -8 -3 6 -11 10 -16
10 -6 0 -3 -7 5 -16 17 -16 61 -10 51 7 -4 5 -1 9 5 9 6 0 8 -11 6 -25 -3 -14
0 -25 5 -25 8 0 13 15 10 33 0 4 7 7 16 7 23 0 83 -23 83 -31 0 -4 8 -8 18 -8
34 -1 92 -13 97 -21 2 -4 -6 -5 -19 -3 -13 3 -27 0 -31 -7 -5 -8 -11 -6 -21 7
-10 13 -13 14 -9 2 4 -9 -6 -26 -25 -42 -30 -27 -60 -36 -60 -17 0 6 -5 10
-11 10 -5 0 -7 -4 -4 -10 4 -6 -6 -10 -22 -9 -15 0 -22 3 -15 6 6 2 10 9 7 13
-3 5 -12 7 -20 4 -8 -4 -12 -10 -9 -15 3 -5 -5 -9 -18 -8 -13 0 -17 3 -10 6 6
2 12 11 12 19 0 8 6 14 14 14 9 0 12 8 8 25 -6 35 -16 38 -46 14 -28 -22 -35
-45 -12 -36 10 4 13 1 9 -9 -3 -7 -13 -14 -23 -14 -13 0 -16 6 -13 24 4 20 1
24 -13 21 -11 -1 -18 -8 -16 -14 1 -6 -5 -11 -13 -11 -8 0 -19 16 -24 38 -14
50 -14 57 4 42 10 -9 15 -9 15 -1 0 6 10 12 23 12 16 1 18 2 5 6 -11 3 -18 13
-17 26 1 19 2 19 6 4 4 -15 12 -18 43 -15z m-3173 -44 c-3 -8 -6 -5 -6 6 -1
11 2 17 5 13 3 -3 4 -12 1 -19z m521 -10 c2 -19 -3 -30 -18 -38 -27 -15 -40
-5 -40 30 0 47 53 54 58 8z m382 22 c0 -5 -4 -10 -10 -10 -5 0 -10 5 -10 10 0
6 5 10 10 10 6 0 10 -4 10 -10z m804 -73 c-27 -60 -39 -74 -49 -57 -6 10 63
126 71 118 2 -3 -7 -30 -22 -61z m-2176 41 c-6 -18 -28 -21 -28 -4 0 9 7 16
16 16 9 0 14 -5 12 -12z m252 3 c0 -6 -4 -13 -10 -16 -5 -3 -10 1 -10 9 0 9 5
16 10 16 6 0 10 -4 10 -9z m3028 -16 c-3 -3 -9 2 -12 12 -6 14 -5 15 5 6 7 -7
10 -15 7 -18z m-2638 -15 c0 -5 -5 -10 -11 -10 -5 0 -7 5 -4 10 3 6 8 10 11
10 2 0 4 -4 4 -10z m3345 -10 c-12 -5 -14 -9 -6 -9 8 -1 12 -3 9 -6 -8 -9 -38
6 -32 16 3 5 15 9 27 8 21 0 21 -1 2 -9z m-3315 -40 c0 -5 -2 -10 -4 -10 -3 0
-8 5 -11 10 -3 6 -1 10 4 10 6 0 11 -4 11 -10z m3210 0 c0 -5 -9 -10 -21 -10
-11 0 -17 5 -14 10 3 6 13 10 21 10 8 0 14 -4 14 -10z m170 -56 c-6 -14 -10
-40 -10 -58 0 -60 -54 -265 -106 -404 l-31 -82 -36 74 c-58 118 -71 169 -55
203 7 15 22 29 33 31 24 4 45 29 45 53 0 9 -7 33 -16 54 -15 37 -15 37 -36 19
-20 -19 -20 -18 -43 10 -18 23 -21 34 -14 48 11 20 25 23 34 8 4 -6 10 -8 15
-5 5 3 11 1 15 -5 11 -18 25 -10 25 15 0 19 7 26 28 31 15 3 47 12 72 19 25 8
55 14 67 14 20 1 21 -2 13 -25z m-1840 -11 c-1 -46 -87 -169 -106 -151 -5 5
32 79 73 146 16 26 33 29 33 5z m1450 -13 c0 -5 -4 -10 -9 -10 -6 0 -13 5 -16
10 -3 6 1 10 9 10 9 0 16 -4 16 -10z m68 -33 c4 -33 -22 -47 -45 -25 -12 13
-13 20 -3 37 15 30 44 23 48 -12z m-4258 -42 c76 -74 133 -199 171 -371 20
-94 19 -164 -3 -207 -13 -25 -80 -86 -95 -87 -7 0 -13 -4 -13 -8 0 -4 -16 -14
-36 -21 -20 -7 -52 -24 -72 -37 -19 -14 -47 -27 -61 -31 -14 -3 -37 -14 -50
-25 -26 -20 -75 -23 -118 -7 -38 14 -143 125 -169 180 -78 159 -104 245 -110
359 -6 99 16 197 51 227 29 25 104 49 115 36 10 -11 73 -263 68 -269 -3 -2
-37 -13 -77 -23 -96 -25 -104 -33 -98 -95 7 -76 17 -108 41 -134 17 -20 28
-23 61 -18 44 6 222 59 270 81 17 8 57 21 90 30 87 24 135 46 146 67 14 25 -7
124 -33 161 -16 22 -27 27 -59 27 -22 0 -56 -7 -76 -15 -19 -8 -41 -15 -48
-15 -11 0 -24 42 -31 95 -4 36 -17 113 -21 129 -5 18 -1 19 58 12 54 -5 68
-11 99 -41z m1124 -36 c-3 -5 -10 -7 -15 -3 -5 3 -7 10 -3 15 3 5 10 7 15 3 5
-3 7 -10 3 -15z m3274 -32 c4 -20 -25 -34 -40 -19 -15 15 -1 44 19 40 10 -2
19 -11 21 -21z m-68 -27 c0 -5 -4 -10 -10 -10 -5 0 -10 5 -10 10 0 6 5 10 10
10 6 0 10 -4 10 -10z m-3484 -97 c8 -30 -6 -46 -37 -41 -27 3 -38 40 -19 63
16 19 49 6 56 -22z m371 -69 c3 -8 1 -20 -6 -27 -8 -8 -11 -8 -11 0 0 6 -3 18
-6 27 -3 9 -1 16 5 16 7 0 14 -7 18 -16z m-262 -43 c7 -12 -12 -24 -25 -16
-11 7 -4 25 10 25 5 0 11 -4 15 -9z m189 -73 c-3 -7 -21 -26 -40 -41 -32 -27
-34 -28 -34 -8 0 11 10 29 22 41 24 22 61 28 52 8z m-234 -19 c10 -18 9 -20
-7 -17 -10 2 -19 11 -21 21 -5 24 15 21 28 -4z m3294 -5 c3 -8 2 -12 -4 -9 -6
3 -10 10 -10 16 0 14 7 11 14 -7z m-3494 -4 c0 -5 -4 -10 -10 -10 -5 0 -10 5
-10 10 0 6 5 10 10 10 6 0 10 -4 10 -10z m4158 -10 c40 -5 182 -12 315 -15
221 -5 242 -7 240 -23 -2 -28 -33 -134 -50 -173 -15 -35 -17 -36 -67 -36 -54
0 -116 -25 -116 -46 0 -6 -6 -23 -13 -37 -7 -14 -11 -46 -9 -73 4 -42 9 -51
36 -68 17 -10 35 -20 41 -22 8 -3 -75 -179 -96 -201 -10 -12 -41 9 -107 73
-29 28 -56 51 -60 51 -4 0 -32 24 -63 53 -71 65 -153 136 -182 156 -12 8 -26
20 -32 26 -5 6 -27 23 -47 39 -46 33 -47 49 -10 124 16 32 32 69 35 83 4 14
13 42 22 62 17 42 30 44 163 27z m-616 -137 c9 -63 9 -86 -1 -111 -20 -47 -54
-73 -103 -78 -47 -5 -47 -6 26 41 49 33 58 58 52 159 -6 110 9 103 26 -11z
m-1597 47 c-3 -5 -13 -10 -21 -10 -8 0 -12 5 -9 10 3 6 13 10 21 10 8 0 12 -4
9 -10z m-321 -35 c-4 -8 -10 -15 -15 -15 -5 0 -9 7 -9 15 0 8 7 15 15 15 9 0
12 -6 9 -15z m-1150 -13 c3 -5 -14 -28 -38 -51 -28 -28 -46 -39 -51 -31 -7 11
1 24 39 68 20 23 41 28 50 14z m1393 -27 c-7 -17 -34 -31 -43 -22 -3 3 2 17
13 31 19 25 40 20 30 -9z m253 15 c0 -5 -5 -10 -11 -10 -5 0 -7 5 -4 10 3 6 8
10 11 10 2 0 4 -4 4 -10z m-390 -135 c0 -8 -7 -15 -15 -15 -8 0 -15 7 -15 15
0 8 7 15 15 15 8 0 15 -7 15 -15z m474 -26 c-3 -5 -10 -7 -15 -3 -5 3 -7 10
-3 15 3 5 10 7 15 3 5 -3 7 -10 3 -15z m36 -34 c0 -8 -7 -15 -15 -15 -8 0 -15
7 -15 15 0 8 7 15 15 15 8 0 15 -7 15 -15z m-1700 -25 c0 -20 -67 -83 -79 -75
-9 5 -2 18 25 46 38 39 54 48 54 29z m1778 -63 c2 -11 -3 -17 -17 -17 -23 0
-35 15 -26 31 10 15 39 6 43 -14z m622 5 c0 -13 -12 -22 -22 -16 -10 6 -1 24
13 24 5 0 9 -4 9 -8z m-950 -46 c0 -27 6 -48 16 -56 27 -23 55 -93 48 -122 -3
-17 -1 -28 5 -28 6 0 11 -7 11 -15 0 -8 -7 -15 -16 -15 -12 0 -15 -6 -11 -22
4 -14 0 -26 -11 -34 -13 -10 -14 -14 -3 -27 11 -14 8 -16 -28 -14 -24 1 -47
-5 -58 -14 -21 -18 -121 -23 -140 -7 -9 7 -21 4 -43 -12 -16 -12 -30 -26 -30
-31 0 -5 -4 -9 -10 -9 -5 0 -10 9 -10 20 0 11 5 20 10 20 7 0 8 17 4 48 -3 26
-7 57 -8 69 0 12 -10 28 -20 36 -11 8 -16 19 -12 26 4 6 -2 25 -14 41 -22 31
-20 65 3 58 6 -3 13 -14 15 -26 5 -32 19 -27 26 9 4 20 1 43 -8 60 -17 35 -3
49 24 24 18 -16 22 -16 70 0 29 10 64 15 81 11 16 -3 29 -2 29 3 0 5 14 14 30
20 17 5 30 15 30 20 0 6 5 11 10 11 6 0 10 -20 10 -44z m-140 25 c0 -6 -4 -13
-10 -16 -5 -3 -10 1 -10 9 0 9 5 16 10 16 6 0 10 -4 10 -9z m-175 -21 c-3 -5
-10 -10 -16 -10 -5 0 -9 5 -9 10 0 6 7 10 16 10 8 0 12 -4 9 -10z m1612 -1 c6
-6 41 -12 78 -15 99 -6 99 -7 37 -82 -74 -90 -239 -262 -252 -262 -6 0 -13 -6
-16 -14 -15 -39 -387 -288 -464 -311 -14 -4 -32 -13 -40 -20 -8 -6 -31 -17
-50 -24 -19 -7 -57 -23 -85 -36 -84 -38 -226 -83 -315 -99 -125 -23 -356 -46
-462 -46 -132 1 -451 39 -503 61 -11 5 -48 15 -81 24 -135 33 -430 155 -448
184 -8 12 63 71 85 71 10 0 21 -9 24 -21 6 -16 13 -20 33 -16 18 4 47 -5 87
-25 33 -17 77 -31 98 -32 20 0 37 -4 37 -7 0 -34 356 -93 398 -66 7 5 19 2 28
-7 8 -9 21 -16 27 -16 7 0 55 -4 107 -8 157 -11 363 -4 393 15 6 4 32 10 57
14 155 25 191 31 245 46 33 9 65 19 70 23 6 4 35 15 65 25 30 10 59 21 65 26
5 5 21 9 37 9 17 0 31 7 38 20 6 11 20 20 31 20 34 0 83 26 126 69 27 26 51
41 67 41 16 0 40 14 62 35 19 19 42 35 49 35 16 0 75 48 75 61 0 17 40 49 60
49 13 0 55 35 111 93 108 110 137 147 116 147 -8 0 -20 7 -27 15 -22 26 12 49
37 24z m-262 -19 c3 -5 -3 -10 -14 -10 -12 0 -21 5 -21 10 0 6 6 10 14 10 8 0
18 -4 21 -10z m775 -4 c9 -12 7 -21 -9 -43 -21 -29 -25 -47 -23 -95 2 -26 27
-47 134 -113 9 -5 76 -50 148 -100 72 -49 147 -100 166 -113 18 -12 34 -27 34
-33 0 -10 -34 -62 -58 -87 -7 -8 -24 -29 -38 -48 -15 -19 -31 -34 -36 -34 -12
0 -42 23 -118 90 -75 66 -100 87 -138 118 -38 30 -88 74 -147 127 -36 32 -44
35 -80 29 -25 -4 -52 -18 -72 -36 -19 -19 -38 -28 -47 -25 -24 10 -20 19 40
88 30 35 74 89 97 119 23 30 45 56 49 58 3 2 21 28 39 58 36 58 40 61 59 40z
m-575 -26 c-3 -5 -11 -10 -16 -10 -6 0 -7 5 -4 10 3 6 11 10 16 10 6 0 7 -4 4
-10z m-445 -4 c0 -3 -4 -8 -10 -11 -5 -3 -10 -1 -10 4 0 6 5 11 10 11 6 0 10
-2 10 -4z m-3005 -32 c68 -8 118 -36 144 -80 19 -32 20 -36 4 -29 -149 59
-206 65 -327 35 -94 -24 -146 -52 -202 -112 -42 -43 -61 -68 -261 -335 -59
-79 -109 -141 -111 -138 -5 5 47 83 148 223 41 57 103 145 138 195 135 198
136 200 178 218 45 20 160 38 209 33 17 -2 52 -6 80 -10z m1685 -1 c0 -5 -4
-15 -10 -23 -11 -18 -25 -7 -17 15 6 15 27 21 27 8z m133 -9 c3 -3 3 -12 0
-19 -6 -17 -33 -8 -33 11 0 14 21 19 33 8z m-903 -23 c0 -20 -57 -71 -78 -71
-21 0 -13 18 23 55 40 40 55 44 55 16z m1793 -15 c6 -16 -2 -28 -14 -20 -12 7
-11 34 0 34 5 0 11 -6 14 -14z m157 -50 c0 -3 -4 -8 -10 -11 -5 -3 -10 -1 -10
4 0 6 5 11 10 11 6 0 10 -2 10 -4z m-1760 -90 c0 -22 -40 -66 -61 -66 -26 0
-24 9 13 47 34 36 48 41 48 19z m240 -17 c0 -5 -4 -9 -10 -9 -5 0 -10 7 -10
16 0 8 5 12 10 9 6 -3 10 -10 10 -16z m1210 -79 c0 -5 -5 -10 -11 -10 -5 0 -7
5 -4 10 3 6 8 10 11 10 2 0 4 -4 4 -10z m300 -4 c0 -3 -4 -8 -10 -11 -5 -3
-10 -1 -10 4 0 6 5 11 10 11 6 0 10 -2 10 -4z m-1660 -48 c-32 -26 -38 -13 -9
18 15 16 25 21 28 13 2 -7 -6 -21 -19 -31z m150 27 c0 -8 -7 -15 -15 -15 -8 0
-15 7 -15 15 0 8 7 15 15 15 8 0 15 -7 15 -15z m2271 -111 c12 -14 7 -22 -35
-61 -47 -43 -48 -45 -41 -89 4 -29 16 -55 35 -74 16 -16 33 -37 39 -47 7 -13
21 -18 54 -17 37 1 53 8 88 37 23 21 49 37 56 37 29 0 10 -38 -37 -73 -53 -39
-57 -53 -38 -108 11 -34 99 -144 121 -152 26 -9 75 15 135 67 39 35 68 53 78
49 27 -10 10 -36 -76 -110 -80 -69 -99 -85 -175 -146 -29 -23 -91 -57 -105
-57 -5 0 -125 173 -235 341 -11 16 -39 58 -63 92 -23 34 -50 77 -60 96 -16 32
-16 34 2 45 10 6 66 50 125 98 58 47 109 87 112 87 4 1 13 -6 20 -15z m-1481
-25 c0 -12 -7 -19 -20 -19 -22 0 -26 20 -8 38 15 15 28 6 28 -19z m715 11 c3
-5 -1 -10 -10 -10 -9 0 -13 5 -10 10 3 6 8 10 10 10 2 0 7 -4 10 -10z m-785
-10 c0 -5 -4 -10 -10 -10 -5 0 -10 5 -10 10 0 6 5 10 10 10 6 0 10 -4 10 -10z
m395 -10 c3 -5 1 -10 -4 -10 -6 0 -11 5 -11 10 0 6 2 10 4 10 3 0 8 -4 11 -10z
m-45 -24 c0 -11 -19 -15 -25 -6 -3 5 1 10 9 10 9 0 16 -2 16 -4z m-666 -77
c-3 -5 -10 -7 -15 -3 -5 3 -7 10 -3 15 3 5 10 7 15 3 5 -3 7 -10 3 -15z
m-1110 -75 c-1 -40 -52 -180 -99 -271 -19 -35 -46 -67 -84 -95 -31 -24 -81
-64 -111 -89 -30 -25 -62 -50 -71 -55 -9 -5 -40 -30 -69 -56 -28 -27 -55 -48
-59 -48 -4 0 -19 -9 -32 -21 -13 -12 -50 -41 -81 -66 -46 -35 -61 -42 -76 -34
-49 26 -45 34 66 126 59 49 121 102 137 117 17 15 64 55 105 90 200 168 248
229 296 376 8 26 20 57 26 70 10 20 13 21 32 8 16 -10 21 -24 20 -52z m1906
46 c0 -5 -4 -10 -10 -10 -5 0 -10 5 -10 10 0 6 5 10 10 10 6 0 10 -4 10 -10z
m-380 -10 c0 -5 -4 -10 -10 -10 -5 0 -10 5 -10 10 0 6 5 10 10 10 6 0 10 -4
10 -10z m-324 -27 c-10 -10 -19 5 -10 18 6 11 8 11 12 0 2 -7 1 -15 -2 -18z
m1419 -248 c48 -77 96 -158 107 -180 12 -22 45 -76 74 -120 54 -83 80 -133 73
-138 -68 -47 -162 -97 -184 -97 -8 0 -63 42 -123 93 -142 123 -152 130 -196
121 l-36 -6 6 -52 c3 -28 12 -64 19 -81 7 -16 24 -55 38 -85 43 -96 42 -102
-11 -127 -68 -32 -122 -45 -127 -30 -16 52 -77 257 -95 322 -13 44 -27 91 -33
105 -5 14 -22 71 -38 128 -24 93 -25 104 -11 108 10 3 35 14 58 25 23 10 44
19 48 19 4 0 61 -48 127 -106 l119 -107 46 6 c25 2 48 7 51 11 13 12 -20 117
-61 199 -24 47 -40 90 -37 96 10 16 85 51 93 43 4 -4 46 -70 93 -147z m-2129
-9 c61 -26 135 -62 165 -80 64 -38 68 -54 44 -160 -21 -91 -44 -145 -67 -157
-25 -14 -90 -3 -216 37 -82 26 -149 12 -163 -36 -20 -65 -78 -205 -87 -208 -5
-1 -59 21 -119 51 l-108 54 3 39 c2 21 7 41 10 44 4 3 20 23 36 45 16 22 44
56 61 76 22 24 34 50 38 83 4 26 16 56 27 68 11 12 41 61 67 108 25 47 54 97
64 112 l19 26 58 -27 c31 -15 107 -49 168 -75z m1311 -136 c15 -30 60 -132 98
-220 15 -36 31 -69 35 -75 12 -16 160 -306 160 -314 0 -6 -44 -19 -173 -52
-58 -15 -66 -9 -88 64 l-15 52 -75 -3 c-112 -6 -123 -14 -127 -90 l-3 -62 -32
-1 c-18 0 -72 -4 -120 -7 -49 -4 -91 -4 -93 0 -3 4 5 45 17 90 24 92 25 99 64
313 14 83 28 159 31 170 2 11 7 43 12 70 l7 50 50 8 c28 5 79 14 115 22 92 18
122 15 137 -15z m-721 -5 c7 -2 7 -31 2 -91 -4 -49 -10 -109 -12 -134 -2 -25
-9 -110 -16 -190 -7 -90 -8 -160 -3 -185 l9 -40 92 -9 c88 -8 92 -10 92 -33 0
-24 -1 -24 -72 -18 -238 20 -388 40 -388 52 0 11 51 270 60 303 16 61 60 276
60 291 0 8 6 27 13 42 12 26 14 26 82 21 39 -3 75 -7 81 -9z"/>
<path d="M3511 6386 c-12 -14 -30 -276 -31 -438 l0 -58 40 0 c65 0 71 20 100
349 10 116 5 135 -37 145 -16 4 -35 9 -44 12 -9 2 -22 -2 -28 -10z"/>
<path d="M1095 5319 c-14 -18 -25 -41 -23 -53 2 -12 40 -49 98 -93 115 -89 99
-76 193 -151 84 -66 120 -77 150 -44 37 40 23 65 -86 159 -280 238 -283 240
-332 182z"/>
<path d="M642 4570 c-46 -50 -32 -110 30 -128 18 -5 116 -39 217 -76 102 -36
187 -66 190 -66 4 0 19 11 34 25 30 28 35 56 13 78 -16 16 -133 67 -296 131
-158 61 -164 62 -188 36z"/>
<path d="M5840 4560 c0 -5 5 -10 11 -10 5 0 7 5 4 10 -3 6 -8 10 -11 10 -2 0
-4 -4 -4 -10z"/>
<path d="M5850 4480 c0 -5 5 -10 10 -10 6 0 10 5 10 10 0 6 -4 10 -10 10 -5 0
-10 -4 -10 -10z"/>
<path d="M5827 4422 c-18 -19 -14 -32 10 -32 8 0 11 5 7 12 -5 8 0 9 14 6 14
-4 22 -2 22 7 0 8 8 11 20 8 11 -3 20 0 20 6 0 19 -75 13 -93 -7z"/>
<path d="M5888 4283 c6 -2 18 -2 25 0 6 3 1 5 -13 5 -14 0 -19 -2 -12 -5z"/>
<path d="M6006 4242 c-2 -4 -1 -23 4 -42 l8 -35 1 43 c1 41 -3 50 -13 34z"/>
<path d="M4151 2694 c-16 -12 -20 -19 -12 -27 6 -6 11 -34 11 -63 0 -43 5 -57
30 -85 19 -22 30 -45 30 -65 0 -35 26 -64 58 -64 11 0 24 -4 27 -10 3 -5 19
-10 36 -10 16 0 30 -6 31 -12 0 -7 2 -26 3 -41 2 -29 35 -67 58 -67 7 0 18 -5
25 -12 9 -9 12 -3 12 28 0 33 -7 46 -40 79 -22 21 -40 45 -40 53 0 24 -30 72
-45 72 -28 0 -55 38 -55 78 0 44 -5 51 -45 74 -21 12 -31 26 -35 49 -6 39 -18
44 -49 23z"/>
<path d="M5870 4134 c0 -7 8 -10 20 -7 11 3 20 8 20 12 0 4 -9 7 -20 7 -11 0
-20 -6 -20 -12z"/>
<path d="M5525 3610 c-3 -5 -1 -10 4 -10 6 0 11 -9 11 -19 0 -14 5 -18 20 -14
23 6 24 8 10 34 -11 20 -35 25 -45 9z"/>
<path d="M5887 3566 c-4 -10 -1 -19 9 -23 21 -8 26 1 11 22 -13 16 -14 16 -20
1z"/>
<path d="M5671 3556 c-1 -12 -6 -16 -16 -12 -9 3 -15 0 -15 -7 0 -7 -9 -23
-20 -35 -25 -26 -5 -30 22 -5 17 15 20 15 28 3 8 -13 10 -12 10 3 0 9 8 17 17
17 9 0 13 3 9 7 -4 4 8 13 26 20 l33 13 -42 -4 c-25 -2 -44 1 -47 8 -2 6 -5 3
-5 -8z"/>
<path d="M5276 3315 c4 -8 10 -15 15 -15 5 0 9 7 9 15 0 8 -7 15 -15 15 -9 0
-12 -6 -9 -15z"/>
<path d="M5105 3311 c-3 -5 -1 -12 5 -16 5 -3 10 1 10 9 0 18 -6 21 -15 7z"/>
<path d="M5340 3291 c14 -11 30 -21 35 -21 6 0 4 4 -3 9 -8 4 -12 12 -10 17 1
5 -8 10 -22 12 l-25 3 25 -20z"/>
<path d="M5823 2477 c-7 -12 23 -38 92 -79 28 -16 70 -42 95 -58 25 -16 52
-29 61 -29 17 -1 54 72 46 93 -4 11 -73 32 -235 71 -36 8 -54 9 -59 2z"/>
<path d="M2546 1108 c-58 -132 -58 -153 -2 -164 52 -9 64 -1 91 61 34 75 33
108 -4 134 -45 32 -60 27 -85 -31z"/>
<path d="M3784 916 c-3 -9 -7 -78 -8 -154 l-1 -137 41 -3 c66 -5 71 10 39 125
-14 54 -30 113 -35 132 -11 43 -27 60 -36 37z"/>
</g>
</svg>
